# xmcd CD database file
#
# Track frame offsets:
#	150
#	15559
#	27677
#	40860
#	51860
#	65725
#	77415
#	87852
#	96495
#	107317
#	124532
#	162370
#	184400
#	200245
#	218497
#	245290
#	260675
#	282957
#
# Disc length: 4440 seconds
#
# Revision: 0
# Processed by: cddbd v1.5.1PL0 Copyright (c) Steve Scherf et al.
# Submitted via: CDex 1.51
#
DISCID=fd115612
DTITLE=Various Artist - Vocal Jazz Highligts CD2 Female 2
DYEAR=2004
DGENRE=Jazz
TTITLE0=Dinah Washington - Is You Is Or Is You Ain't My Baby
TTITLE1=Anita O'Day -  Them There Eyes
TTITLE2=Helen Forrest - I've Heard That Song Before
TTITLE3=Helen Shapiro - Fever
TTITLE4=Beverly Kenney - Swinging On A Star
TTITLE5=Irene Kral - Comes Love
TTITLE6=Ella Fitzgerald - Hawaiian War Chant
TTITLE7=Sarah Vaughan - I Got Rhythm
TTITLE8=Abbey Lincoln - This Can't Be Love
TTITLE9=Nina Simone - Forbidden Fruit
TTITLE10=Marlena Shaw - Woman Of The Ghetto
TTITLE11=Cathy Ritch - The Beat Goes On
TTITLE12=Flora Purim - Tears
TTITLE13=Dianne Reeves - Mi Vida
TTITLE14=Rebecka Törnqvist - Honeysuckle Rose
TTITLE15=Brigitte Fontaine - La Caravane
TTITLE16=Keren Ann - Seventeen
TTITLE17=Data
EXTD=YEAR: 2004
EXTT0=
EXTT1=
EXTT2=
EXTT3=
EXTT4=
EXTT5=
EXTT6=
EXTT7=
EXTT8=
EXTT9=
EXTT10=
EXTT11=
EXTT12=
EXTT13=
EXTT14=
EXTT15=
EXTT16=
EXTT17=
PLAYORDER=
